<!DOCTYPE svg PUBLIC "-//W3C//DTD SVG 1.1//EN" "http://www.w3.org/Graphics/SVG/1.1/DTD/svg11.dtd" [
]><svg id="Lager_1" xmlns="http://www.w3.org/2000/svg" xmlns:xlink="http://www.w3.org/1999/xlink" viewBox="0 0 640 640"><style>.circle{fill:#fff}</style><switch><g><path id="circle1" class="circle" d="M360.2 316.6c11.5 0 22.4 4.5 30.5 12.6 16.8 16.8 16.8 44.2 0 61-8.2 8.2-19 12.6-30.5 12.6s-22.4-4.5-30.5-12.6c-8.2-8.2-12.6-19-12.6-30.5s4.5-22.4 12.6-30.5c8.1-8.1 18.9-12.6 30.5-12.6m0-67.8c-28.4 0-56.8 10.8-78.5 32.5-43.3 43.3-43.3 113.6 0 156.9 21.7 21.7 50.1 32.5 78.5 32.5s56.8-10.8 78.5-32.5c43.3-43.3 43.3-113.6 0-156.9-21.7-21.7-50.1-32.5-78.5-32.5z"/><path id="circle2" class="circle" d="M340.6 173.7c44.5 0 86.3 17.3 117.7 48.8 31.4 31.4 48.8 73.2 48.8 117.7s-17.3 86.3-48.8 117.7c-31.4 31.4-73.2 48.8-117.7 48.8s-86.3-17.3-117.7-48.8c-31.4-31.4-48.8-73.2-48.8-117.7s17.3-86.3 48.8-117.7c31.4-31.5 73.2-48.8 117.7-48.8m0-55.5c-56.8 0-113.6 21.7-156.9 65-86.7 86.7-86.7 227.2 0 313.9 43.3 43.3 100.1 65 156.9 65s113.6-21.7 156.9-65c86.7-86.7 86.7-227.2 0-313.9-43.3-43.4-100.1-65-156.9-65z"/><path id="circle3" class="circle" d="M320.9 43.1c74.1 0 143.8 28.9 196.2 81.3 52.4 52.4 81.3 122.1 81.3 196.2s-28.9 143.8-81.3 196.2c-52.4 52.4-122.1 81.3-196.2 81.3s-143.8-28.9-196.2-81.3c-52.4-52.4-81.3-122.1-81.3-196.2s28.9-143.8 81.3-196.2c52.5-52.5 122.1-81.3 196.2-81.3m0-41.7c-81.7 0-163.3 31.2-225.6 93.5-124.6 124.6-124.6 326.6 0 451.2 62.3 62.3 144 93.5 225.6 93.5s163.3-31.2 225.6-93.5c124.6-124.6 124.6-326.6 0-451.2C484.2 32.6 402.6 1.4 320.9 1.4z"/></g></switch></svg>